<?xml version="1.0" encoding="utf-8"?>
<!-- Generator: Adobe Illustrator 23.0.1, SVG Export Plug-In . SVG Version: 6.00 Build 0)  -->
<svg version="1.1" id="Layer_1" xmlns="http://www.w3.org/2000/svg" xmlns:xlink="http://www.w3.org/1999/xlink" x="0px" y="0px"
	 viewBox="0 0 595.28 841.89" style="enable-background:new 0 0 595.28 841.89;" xml:space="preserve">
<style type="text/css">
	.st0{fill:url(#SVGID_1_);stroke:url(#SVGID_2_);stroke-miterlimit:10;}
	.st1{fill:url(#SVGID_3_);stroke:url(#SVGID_4_);stroke-miterlimit:10;}
	.st2{fill:url(#SVGID_5_);stroke:url(#SVGID_6_);stroke-miterlimit:10;}
</style>
<g>
	<linearGradient id="SVGID_1_" gradientUnits="userSpaceOnUse" x1="296.8146" y1="399.614" x2="587.8108" y2="399.614">
		<stop  offset="0.0127" style="stop-color:#2E5464"/>
		<stop  offset="1" style="stop-color:#213B44"/>
	</linearGradient>
	<linearGradient id="SVGID_2_" gradientUnits="userSpaceOnUse" x1="295.8162" y1="399.4193" x2="588.3108" y2="399.4193">
		<stop  offset="0.0127" style="stop-color:#065BA7"/>
		<stop  offset="1" style="stop-color:#FBFBFB"/>
	</linearGradient>
	<path class="st0" d="M587.81,441.26c0,27.29-3.78,53.69-10.85,78.71c-11.15,39.44-30.45,75.44-55.99,106.08
		c-25.33,7.27-52.08,11.15-79.74,11.15c-52.61,0-101.94-14.07-144.42-38.64c86.34-49.94,144.42-143.28,144.42-250.19
		c0-0.37,0-0.75-0.01-1.12c-0.26-70.58-25.83-135.18-68.13-185.22C496.7,194.74,587.81,307.36,587.81,441.26z"/>
	<linearGradient id="SVGID_3_" gradientUnits="userSpaceOnUse" x1="23.1105" y1="538.6038" x2="523.0945" y2="538.6038">
		<stop  offset="0.0127" style="stop-color:#2E5464"/>
		<stop  offset="1" style="stop-color:#213B44"/>
	</linearGradient>
	<linearGradient id="SVGID_4_" gradientUnits="userSpaceOnUse" x1="22.5909" y1="538.4171" x2="524.5193" y2="538.4171">
		<stop  offset="0.0127" style="stop-color:#065BA7"/>
		<stop  offset="1" style="stop-color:#FBFBFB"/>
	</linearGradient>
	<path class="st1" d="M523.09,624.73c-52.98,63.58-132.76,104.05-221.99,104.05c-88.51,0-167.73-39.82-220.72-102.51
		c-26.18-30.98-45.94-67.53-57.28-107.63c20.4-72.2,68.18-132.91,131.41-170.22c0.49,106.33,58.45,199.08,144.42,248.81
		c42.48,24.58,91.81,38.64,144.42,38.64C471.01,635.88,497.76,631.99,523.09,624.73z"/>
	<linearGradient id="SVGID_5_" gradientUnits="userSpaceOnUse" x1="11.2287" y1="335.9372" x2="442.3127" y2="335.9372">
		<stop  offset="0.0127" style="stop-color:#2E5464"/>
		<stop  offset="1" style="stop-color:#213B44"/>
	</linearGradient>
	<linearGradient id="SVGID_6_" gradientUnits="userSpaceOnUse" x1="10.7287" y1="336.6066" x2="442.8159" y2="336.6066">
		<stop  offset="0.0127" style="stop-color:#065BA7"/>
		<stop  offset="1" style="stop-color:#FBFBFB"/>
	</linearGradient>
	<path class="st2" d="M442.31,346.99c-41.99-23.8-90.53-37.4-142.24-37.4c-53.5,0-103.61,14.55-146.58,39.9
		C90.26,386.81,42.48,447.52,22.08,519.71c-7.07-25.02-10.85-51.42-10.85-78.71c0-131.86,88.36-243.09,209.1-277.69
		c25.33-7.27,52.08-11.15,79.74-11.15c25.62,0,50.46,3.34,74.11,9.6C416.48,211.81,442.06,276.41,442.31,346.99z"/>
</g>
</svg>
